<svg xmlns="http://www.w3.org/2000/svg" xmlns:xlink="http://www.w3.org/1999/xlink" width="20" height="20" class="messenger__icon"><defs><symbol xmlns="http://www.w3.org/2000/svg" id="b" fill="none" viewBox="0 0 15 14"><g clip-path="url(#a)"><path fill="#5B978E" fill-rule="evenodd" d="M8.038 1.436h-.353a.718.718 0 1 1 0-1.436h.353A6.462 6.462 0 0 1 14.5 6.462v4.788a.718.718 0 1 1-1.436 0V6.462a5.026 5.026 0 0 0-5.026-5.026ZM3.805.092c.396 0 .718.322.718.718v2.932A4.385 4.385 0 0 1 7.5 2.582c2.441 0 4.414 1.988 4.414 4.433v6.267a.718.718 0 1 1-1.436 0v-2.995a4.385 4.385 0 0 1-2.978 1.16c-2.44 0-4.413-1.988-4.413-4.432V.81c0-.396.321-.718.718-.718Zm6.673 6.923A2.987 2.987 0 0 0 7.5 4.018a2.987 2.987 0 0 0-2.977 2.997A2.987 2.987 0 0 0 7.5 10.012a2.987 2.987 0 0 0 2.978-2.997Zm-9.26-5.167c.396 0 .718.321.718.718v4.972a5.026 5.026 0 0 0 5.026 5.026h.353a.718.718 0 1 1 0 1.436h-.353A6.462 6.462 0 0 1 .5 7.538V2.566c0-.397.321-.718.718-.718Z" clip-rule="evenodd"/></g><defs><clipPath id="a"><path fill="#fff" d="M.5 0h14v14H.5z"/></clipPath></defs></symbol></defs><use xlink:href="#b"/></svg>