<svg xmlns="http://www.w3.org/2000/svg" id="Layer_1" viewBox="0 0 1920 1920"><defs><style>.cls-1{fill:#fff}.cls-3{fill:#36b04a}</style></defs><path d="M1648.4 1417.42c-17.63 73.03-53.2 135.69-111.72 183.9a371.85 371.85 0 0 1-121.44 63.57c-76.27 25.34-153.06 49.57-229.59 74.2-93.18 29.81-186.41 59.55-279.68 89.23a459.652 459.652 0 0 1-104.52 21.77c-26.06 1.61-52.22-.33-77.76-5.77a337.577 337.577 0 0 1-96.42-34.6c-74.65-40.44-123.83-101.22-149.3-183.32-46.72-150.72-95.84-300.8-144.24-451.01-13.4-38.38-24.59-77.5-33.5-117.16-16.72-84.24-2.33-161.61 45.81-232.76.78-1.1 1.36-2.33 2.4-3.95a307.226 307.226 0 0 1-78.6-141.2c-17.56-69.53 1.17-131.22 46.46-185.59a342.906 342.906 0 0 1 85.99-71.28c2.53-1.62 5.12-3.11 8.23-5.05-7.84-16.2-15.42-32.4-23.2-47.95a134.72 134.72 0 0 1-15.81-67.91c2.01-34.86 18.66-61.95 45.36-83.59a175.007 175.007 0 0 1 57.74-30.2c104.72-33.83 209.43-67.61 314.15-101.35a379.065 379.065 0 0 1 60.33-16.2c63.71-9.51 123.07 34.43 132.58 98.15.17 1.13.32 2.26.46 3.4 2.79 20.28 6.48 40.44 9.53 59.88 16.98 0 33.24-.71 49.44 0 35.73 1.01 71.11 7.34 104.98 18.79 57.87 19.45 102.19 66.52 118.13 125.45a383.71 383.71 0 0 1 16.91 113.66c0 11.53-1.81 23.07-2.79 34.34 15.55 7.52 31.04 14.71 46.2 22.55a275.928 275.928 0 0 1 137.76 161.22c17.37 51.06 33.57 102.45 49.96 153.84 44.71 140.1 89.27 280.22 133.68 420.36a247.11 247.11 0 0 1 2.46 134.59Z" class="cls-1"/><path d="M1601.55 1404.46c-14.52 57.15-40.37 108.35-83.85 149.04-50.67 47.37-117.42 65.51-181.44 86.38a55801.77 55801.77 0 0 1-437.08 139.64c-70.11 22.03-135.69 30.59-206.52 6.16-52.36-18.01-101.54-52.16-132.65-98.43-36.61-54.43-50.09-121.82-69.66-183.51-23.28-73.22-46.76-146.34-70.44-219.35-25.34-78.47-57.35-157.79-72.84-238.98-14.06-73.48 4.99-136.66 43.55-199.2 10.82-19.14 7.73-43.12-7.58-58.9-43.55-46.46-79.83-114.18-69.34-179.88 10.76-67.39 66.94-113.21 121.56-146.71 23.65-14.52 29.03-42.31 17.43-66.48-23.98-49.7-55.27-103.68 2.01-142.56 30.13-20.54 70.89-27.99 105.24-38.88l114.76-37.13 108.73-35.06c28.45-9.07 61.82-25.47 92.34-21.58 61.88 7.91 61.5 79.51 69.21 126.62 3.37 20.61 27.22 35.83 46.85 35.7 66.42-.52 146.12 0 194.85 52.62 45.36 48.92 49.51 128.69 43.22 191.16a47.156 47.156 0 0 0 24.11 41.99c59.62 28.77 112.36 57.87 145.28 117.87 17.37 31.75 26.7 67.52 37.84 101.8 13.48 41.52 26.78 83.14 39.92 124.87 25.53 80.05 51.04 160.12 76.53 240.21 25.92 81.32 67.26 166.28 48.15 252.72-13.48 60.98 80.22 87.03 93.77 25.92a321.701 321.701 0 0 0 2.33-142.11c-10.63-46.72-28.38-92.66-42.9-138.35-29.2-92.15-58.51-184.23-87.93-276.24-25.92-82.3-45.36-175.93-90.72-250.06-41.67-67.78-103.03-106.79-173.08-140.62l23.72 41.67c8.94-88.91-8.42-192.52-71.67-259.85-67.59-71.86-170.55-81.71-263.61-81l46.98 35.7c-7.19-44.19-10.3-89.16-36.55-127.01a166.006 166.006 0 0 0-88.52-64.8c-43.35-12.96-85.99-3.82-127.92 9.59L636.59 85.45l-150.98 48.79c-44.32 14.71-87.87 30.65-119.75 66.55a161.988 161.988 0 0 0-43.09 112.49c1.3 47.3 25.92 88.65 45.75 130.12l17.43-66.48c-80.74 49.44-153.71 119.43-168.16 217.53-14.26 96.62 31.43 192.33 96.29 261.53l-7.71-59.03c-38.88 63.76-64.15 131.35-61.37 207.36 3.05 82.36 34.34 161.16 59.42 238.72 26.87 83.2 53.68 166.45 80.42 249.74 24.04 75.43 40.95 158.89 81.32 227.77 74.39 126.81 227.77 194.79 371.76 173.6 85.41-12.57 169.13-47.11 251.1-73.35 80.78-25.92 161.59-51.84 242.42-77.76 83.92-27.02 170.36-50.22 239.44-107.63 63.44-52.68 104.07-126.04 124.29-205.35 15.55-60.39-78.15-86.25-93.64-25.6Z" class="cls-1"/><path d="M348.45 821.64a307.66 307.66 0 0 1-78.67-141c-17.43-69.6 1.23-131.28 46.53-185.65a341.528 341.528 0 0 1 85.99-71.28l8.23-5.05c-7.84-16.2-15.42-32.4-23.2-47.95a134.283 134.283 0 0 1-15.81-67.91c2.07-34.8 18.66-61.95 45.36-83.59a175.576 175.576 0 0 1 57.8-30.2c104.63-33.83 209.33-67.61 314.09-101.35 19.62-7.14 39.8-12.65 60.33-16.46 63.71-9.51 123.07 34.43 132.58 98.15.17 1.13.32 2.26.46 3.4 2.79 20.28 6.48 40.37 9.59 59.94 16.91 0 33.24-.71 49.44 0 35.73.97 71.11 7.28 104.98 18.73 57.83 19.48 102.13 66.54 118.07 125.45 11.3 36.82 17 75.14 16.91 113.66 0 11.53-1.81 23.07-2.79 34.34 15.55 7.58 31.1 14.71 46.2 22.62a275.594 275.594 0 0 1 137.76 161.16c17.37 51.06 33.57 102.45 49.96 153.77 44.71 140.1 89.27 280.26 133.68 420.49a247.603 247.603 0 0 1 2.53 134.46c-17.69 73.03-53.33 135.69-111.78 183.9-35.9 29.61-77.76 48.99-121.44 63.57-76.33 25.4-152.99 49.64-229.59 74.2-93.18 29.89-186.41 59.66-279.68 89.29a463.578 463.578 0 0 1-104.52 21.71c-26.06 1.61-52.22-.33-77.76-5.77a337.207 337.207 0 0 1-96.36-34.6c-74.71-40.69-123.9-101.15-149.36-183.25-46.79-150.72-95.84-300.8-144.24-451.01-13.4-38.38-24.59-77.5-33.5-117.16-16.65-84.24-2.33-161.61 45.81-232.76.78-.97 1.43-2.2 2.4-3.82Zm161.35-34.67c-5.05 6.87-9.33 13.35-14.26 19.44-16.78 19.89-34.6 38.88-50.67 59.42-47.43 60.33-62.01 127.27-37.71 201.27 17.11 51.84 34.47 103.68 51.13 156.04 41.93 130.83 83.4 261.79 125.52 392.56a145.04 145.04 0 0 0 18.86 39.4 209.479 209.479 0 0 0 61.5 56.31c62.08 38.49 128.11 44.32 196.99 22.68 66.74-20.93 133.23-42.64 199.84-63.96 104.03-33.31 208.03-66.57 312.01-99.79a313.913 313.913 0 0 0 83.01-37.13c47.56-32.4 74.78-78.8 89.49-133.55 8.84-28.42 9.05-58.82.58-87.35-60.78-189.78-121.26-379.68-181.44-569.72a165.108 165.108 0 0 0-48.41-75.17 267.046 267.046 0 0 0-116.25-57.8c-20.67-5.05-41.41-9.72-62.14-14.52-6.03-1.43-11.34-5.31-10.89-10.82.58-7.71-1.56-17.24 7.65-22.16 32.4-17.69 45.36-46.46 42.12-81.78a567.873 567.873 0 0 0-12.96-73.35c-7.06-31.82-27.86-51.19-58.9-60.2a288.796 288.796 0 0 0-124.55-7.32c-8.75 1.3-17.5 2.85-25.92 4.8s-11.34 6.03-8.55 14.52l2.79 8.62q5.05 15.36 21.51 13.54a53.256 53.256 0 0 1 30.91 3.43c6.87 3.5 8.29 9.53 2.72 14.58a81.783 81.783 0 0 1-19.44 14.26c-53.01 24.3-105.75 49.44-159.67 71.28a1149.25 1149.25 0 0 1-239.63 67.2c-25.08 4.34-50.22 7.97-75.49 11.21-6.02.19-12.02-.84-17.63-3.05-5.9-1.81-7.97-6.48-3.56-11.34 5.44-6.13 11.48-11.71 18.01-16.65 6.48-4.6 13.48-7.65 19.89-11.86 1.81-1.17 3.82-4.73 3.24-6.48-3.63-10.37-7.97-20.41-12.31-30.97-2.2.78-3.76 1.17-5.25 1.81a404.184 404.184 0 0 0-71.28 38.3 224.858 224.858 0 0 0-52.49 48.08c-19.05 25.08-27.99 53.01-18.73 84.24a223.21 223.21 0 0 0 49.12 89.36 72.667 72.667 0 0 0 59.03 25.34c9.97-1.4 19.91 2.75 25.92 10.82 1.95 2.3 4.05 4.46 6.29 6.48Zm355.3-612.81c-4.21 1.04-8.62 1.75-12.96 3.11l-361 116.64a48.581 48.581 0 0 0-9.78 4.34c-8.04 5.05-9.07 8.81-4.92 17.17 16.65 33.76 33.37 67.39 50.09 101.15 13.48 27.22 26.98 54.45 40.5 81.71 3.21 8.4 12.22 13.06 20.93 10.82 14.06-2.79 27.99-6.09 41.86-9.78 85.92-23.07 170.04-51.84 253.82-81.78 9.46-3.43 21.32-5.31 22.23-19.44 0-.45.71-.84 1.17-1.17 5.12-4.08 4.73-9.14 3.69-15.03-6.03-34.8-11.66-69.66-17.5-104.46-5.12-30.78-10.24-61.56-15.55-92.28-1.04-8.42-3.95-10.3-12.57-11.02Z"/><path d="M509.8 786.98a66.061 66.061 0 0 1-6.48-6.48 27.544 27.544 0 0 0-25.92-10.82 72.624 72.624 0 0 1-59.03-25.34 223.21 223.21 0 0 1-49.12-89.36c-9.27-31.1 0-59.03 18.73-84.24a224.425 224.425 0 0 1 52.49-48.08 404.184 404.184 0 0 1 71.28-38.3c1.49-.65 3.05-1.04 5.25-1.81 4.34 10.56 8.68 20.61 12.31 30.97.58 1.56-1.43 5.12-3.24 6.48-6.48 4.21-13.74 7.26-19.89 11.86a125.175 125.175 0 0 0-18.01 16.65c-4.41 4.86-2.33 9.53 3.56 11.34 5.61 2.2 11.6 3.24 17.63 3.05 25.27-3.24 50.41-6.87 75.49-11.21 82.17-13.55 162.63-36 239.95-66.94 53.91-22.1 106.66-47.24 159.67-71.28a81.51 81.51 0 0 0 19.44-14.26c5.57-5.05 4.15-11.08-2.72-14.58a53.174 53.174 0 0 0-30.91-3.43q-16.46 1.81-21.51-13.54l-2.79-8.62c-2.79-8.49-.65-12.51 8.55-14.52 9.2-2.01 17.37-3.5 25.92-4.8 41.39-6.66 83.74-4.23 124.09 7.13 31.04 9.01 51.84 28.38 58.9 60.2a568.176 568.176 0 0 1 12.96 73.35c3.18 35.32-9.53 64.09-42.12 81.78-9.2 4.92-7.06 14.45-7.65 22.16-.45 5.51 4.86 9.4 10.89 10.82 20.74 4.8 41.47 9.46 62.14 14.52a266.996 266.996 0 0 1 116.51 57.67 165.189 165.189 0 0 1 48.41 75.17c60.48 190.08 120.96 379.99 181.44 569.72 8.46 28.53 8.26 58.93-.58 87.35-14.71 54.76-41.93 100.89-89.49 133.55a313.77 313.77 0 0 1-83.01 37.13 124526.24 124526.24 0 0 1-312.01 99.79c-66.61 21.32-133.1 43.03-199.84 63.96-68.88 21.64-134.91 15.81-196.99-22.68a209.479 209.479 0 0 1-61.5-56.31 145.335 145.335 0 0 1-18.86-39.4c-42.12-130.77-83.59-261.73-125.52-392.56-16.65-52.16-34.02-104.07-51.13-156.04-24.3-74-9.72-140.94 37.71-201.27 16.07-20.48 33.89-39.53 50.67-59.42 5.31-6.03 9.27-12.51 14.32-19.38Zm810 70.53-9.33 6.48c-22.42 15.75-44.65 31.75-67.39 47.04-71.67 48.34-150.98 63.44-235.81 53.4-36.22-4.28-72.19-10.63-108.41-14.71a317.44 317.44 0 0 0-114.57 6.48c-18.21 4.6-36.03 10.82-54.43 14.39-16.62 3.17-33.48-4.16-42.51-18.47-9.62-11.77-10.43-28.43-2.01-41.08 21.34-36.79 4.65-85.19-37.98-99.63-17.13-5.8-36.23-4.42-52.27 3.92-23.03 11.97-36.43 34.38-37.53 58.12-1.63 27.66 14 53.44 39.27 64.8a37.375 37.375 0 0 1 20.93 21.58c7.32 21.38-2.98 53.85-21.51 67.13-8.55 6.09-17.37 11.86-25.92 18.21-21.58 16.46-40.89 34.99-52.68 59.94a67.185 67.185 0 0 0-4.21 53.46c23.33 67.39 44.97 135.37 67.65 202.95 17.11 51.06 34.28 102.12 52.55 152.8a255.374 255.374 0 0 0 51.13 89.49c31.88 34.41 71.28 52.88 117.94 51.32 41.78-1.28 83.2-8.21 123.12-20.61 94.39-29.59 188.72-59.42 282.98-89.49 51.13-16.26 102.19-32.4 150.34-56.7 45.94-22.94 78.08-57.48 91.69-107.76 8.84-35.93 8.14-73.54-2.01-109.12-9.85-38.56-21.51-76.59-33.5-114.57-26.37-83.79-53.33-167.44-80.16-251.1-4.92-15.81-9.85-31.23-15.42-48.28h.06Zm-126.12-2.33c.18-37.9-30.4-68.77-68.3-68.95h-.07c-37.85.25-68.52 30.77-68.95 68.62 1.16 37.92 32.85 67.71 70.76 66.55 36.28-1.11 65.43-30.27 66.55-66.55v.32ZM780.93 706.24c9.33-.58 18.73-1.36 28.12-1.81 61.04-2.28 120.67-19 173.99-48.79 32.4-18.4 64.41-38.88 96.55-58.32 1.17-.78 2.79-1.36 3.3-2.4a8.4 8.4 0 0 0 .91-5.83c-.65-1.23-3.5-1.62-5.38-1.75-1.36.21-2.66.7-3.82 1.43-87.29 35.58-175.74 67.85-265.68 96.03-12.96 4.15-26.37 8.16-39.4 12.96-2.07.71-3.3 3.63-4.99 5.51 1.96 1.48 4.15 2.64 6.48 3.43 3.31.17 6.63.02 9.91-.45Zm179.47 66.15c-24.01.2-42.71 22.29-37.31 47.17 3.16 14.55 15.04 26.24 29.64 29.16 24.97 4.99 46.75-14.08 46.55-38.08 0-.22 0-.44-.01-.66-.37-21.14-17.72-38.03-38.87-37.83v.24Z" class="cls-1"/><path d="M865.1 174.16c8.62.71 11.21 2.59 12.96 11.47 5.31 30.72 10.43 61.5 15.55 92.28 5.83 34.8 11.47 69.66 17.5 104.46 1.04 5.9 1.43 10.95-3.69 15.03-.45 0-1.1.71-1.17 1.17-.91 13.87-12.96 15.75-22.23 19.44-83.79 29.87-167.9 58.71-253.82 81.78-13.87 3.69-27.8 7-41.86 9.78-8.71 2.24-17.72-2.42-20.93-10.82-13.65-27.39-27.22-54.71-40.69-81.97-16.72-33.76-33.44-67.39-50.09-101.15-4.15-8.36-3.11-12.12 4.92-17.17 3.09-1.8 6.37-3.26 9.78-4.34l361-116.64c4.15-1.56 8.55-2.27 12.77-3.3Z" style="fill:#c38124"/><path d="M1319.73 856.64c5.57 17.04 10.76 32.4 15.68 47.95 26.83 83.66 53.78 167.31 80.16 251.1 11.99 37.97 23.65 76.01 33.5 114.57a212.604 212.604 0 0 1 2.01 109.12c-13.61 50.28-45.75 84.82-91.69 107.76-48.15 24.04-99.21 40.44-150.34 56.7-94.31 29.94-188.63 59.77-282.98 89.49a462.839 462.839 0 0 1-123.12 20.61c-46.79 1.56-86.05-16.91-117.94-51.32a255.351 255.351 0 0 1-51.13-89.49c-18.27-50.67-35.45-101.74-52.55-152.8-22.74-67.59-44.39-135.69-67.59-202.95-6.08-17.63-4.55-37 4.21-53.46 11.79-24.95 31.1-43.48 52.68-59.94 8.36-6.48 17.17-12.12 25.92-18.21 18.53-13.28 28.84-45.75 21.51-67.13a37.35 37.35 0 0 0-21-21.12c-25.27-11.36-40.9-37.14-39.27-64.8 1.9-37.78 34.07-66.87 71.85-64.96 37.78 1.9 66.87 34.07 64.96 71.85a68.492 68.492 0 0 1-9.03 30.7c-8.43 12.65-7.61 29.32 2.01 41.08 9.03 14.31 25.89 21.64 42.51 18.47 18.4-3.56 36.22-9.78 54.43-14.39 37.48-9.1 76.3-11.3 114.57-6.48 36.22 4.08 72.19 10.43 108.41 14.71 84.82 10.04 164.14-5.05 235.81-53.4 22.74-15.29 44.97-31.3 67.39-47.04l9.01-6.61ZM939.61 1372.9a185.2 185.2 0 0 0-34.34-100.12 105.083 105.083 0 0 0-45.36-38.88c-22.18-10.02-48.36-2.04-61.17 18.66a88.787 88.787 0 0 0-14.58 41.86 180.78 180.78 0 0 0 34.8 126.62 102.693 102.693 0 0 0 40.5 34.8c27.48 12.44 53.27 3.95 67.91-22.42 9.2-16.91 12.18-35.64 12.25-60.52Zm300.8-94.41a185.273 185.273 0 0 0-34.02-101.41 106.002 106.002 0 0 0-43.22-37.78c-24.24-12.49-54.02-2.95-66.51 21.29l-.63 1.26a110.183 110.183 0 0 0-12.57 56.05c.39 30.87 8.52 61.15 23.65 88.06 12.96 22.55 28.38 42.25 52.49 53.72 24.06 13.07 54.15 4.15 67.22-19.91.45-.83.87-1.66 1.27-2.51a120.136 120.136 0 0 0 12.31-58.77Z" class="cls-3"/><path d="M1194.93 852.1c-1.16 37.92-32.85 67.71-70.76 66.55-36.28-1.11-65.43-30.27-66.55-66.55.42-37.85 31.1-68.38 68.95-68.62 37.8.14 68.36 30.82 68.36 68.62Z" class="cls-3"/><path d="M780.92 706.24c-3.28.47-6.6.62-9.91.45-2.33-.79-4.52-1.95-6.48-3.43 1.68-1.88 2.92-4.8 4.99-5.51 12.96-4.47 25.92-8.49 39.4-12.96 89.94-28.19 178.39-60.46 265.68-96.03 1.17-.73 2.47-1.21 3.82-1.43 1.88 0 4.73.52 5.38 1.75a8.4 8.4 0 0 1-.91 5.83c-.52 1.04-2.14 1.62-3.3 2.4-32.4 19.44-63.83 39.79-96.55 58.32a386.292 386.292 0 0 1-173.99 48.79c-9.4.45-18.79 1.23-28.12 1.81Z"/><path d="M958.6 769.38c30.67-.02 53.45 33.78 33.09 66.17-6.21 9.89-17.46 15.48-29.14 15.48h-5.64c-14 0-27.41-7.29-33.8-19.75-15.9-31 6.18-61.88 35.49-61.9Z" class="cls-3"/><path d="M939.62 1372.9c0 24.88-3.05 43.61-12.51 60.78-14.64 26.37-40.44 34.86-67.91 22.42a102.613 102.613 0 0 1-40.5-34.8 180.78 180.78 0 0 1-34.8-126.62 88.787 88.787 0 0 1 14.58-41.86c12.81-20.7 38.99-28.68 61.17-18.66 18.56 8.3 34.32 21.8 45.36 38.88a185.107 185.107 0 0 1 34.6 99.86Zm300.8-94.42c.93 20.32-3.3 40.54-12.31 58.77-11.68 24.76-41.22 35.37-65.98 23.69-.85-.4-1.69-.83-2.51-1.27-24.11-11.47-39.85-31.17-52.49-53.72a184.402 184.402 0 0 1-23.65-87.8c-.84-19.47 3.5-38.81 12.57-56.05 11.79-24.59 41.28-34.97 65.87-23.18.42.2.84.41 1.26.63a106.002 106.002 0 0 1 43.22 37.78 185.211 185.211 0 0 1 34.02 101.15Z" style="fill:#f0f1f1"/></svg>