<svg width="64" height="64" viewBox="0 0 64 64" fill="none" xmlns="http://www.w3.org/2000/svg">
<path fill-rule="evenodd" clip-rule="evenodd" d="M15.9719 8.5444C16.2622 8.53071 16.5476 8.61574 16.7941 8.7701L19.7226 10.6045C20.83 11.2983 20.6277 13.3185 19.7674 14.4607L19.9399 14.5694C21.2431 13.8733 22.7308 13.4781 24.3104 13.4781L24.4795 13.4798C24.5321 13.4808 24.5845 13.4822 24.6368 13.484C24.6359 13.4822 24.6353 13.4802 24.6344 13.4784C24.3863 13.4509 24.1455 13.3748 23.9333 13.242L20.817 11.2902C19.5494 10.4961 20.0732 9.15095 21.341 9.94475L21.3611 9.9576L29.234 14.8895L29.3892 14.9885C29.4095 15.0018 29.4298 15.0154 29.45 15.0288C29.4639 15.038 29.4778 15.0476 29.4917 15.0569C29.5519 15.0975 29.6119 15.1386 29.6712 15.1805C29.6942 15.1968 29.7171 15.2133 29.7399 15.2298C29.7953 15.2697 29.8501 15.3106 29.9045 15.3517C29.9162 15.3606 29.9282 15.3695 29.9399 15.3784C30.2464 15.6121 30.5379 15.8644 30.8128 16.1336C31.0803 15.7779 31.5035 15.532 32.0438 15.5319H46.9976C47.2882 15.5319 47.5733 15.614 47.8198 15.7684L48.8472 16.4118L48.8469 16.4114L48.1764 15.9916C47.9651 15.8592 48.0523 15.6351 48.2635 15.7673L56.1535 20.7097L56.1563 20.7118L56.1569 20.7121C56.5953 20.9869 56.8871 21.4751 56.8872 22.0316V23.5864C56.8872 23.884 56.8033 24.1622 56.6587 24.3986C56.6574 24.4007 56.6565 24.4033 56.6552 24.4055C56.6483 24.4167 56.6405 24.4275 56.6333 24.4385C56.6286 24.4457 56.6239 24.4529 56.6191 24.46C56.6118 24.4708 56.6041 24.4814 56.5965 24.492C56.5538 24.5516 56.5071 24.6085 56.4566 24.6614C56.3988 24.7219 56.3363 24.7779 56.2695 24.8284C56.2636 24.8328 56.2576 24.837 56.2517 24.8413C56.238 24.8514 56.2241 24.8615 56.2101 24.8711C56.2 24.8781 56.1898 24.8849 56.1795 24.8916C56.1725 24.8962 56.1655 24.901 56.1583 24.9055C56.1442 24.9144 56.1294 24.9224 56.1149 24.9309C56.1065 24.9358 56.0981 24.941 56.0896 24.9458C56.079 24.9517 56.068 24.9571 56.0573 24.9628C56.0471 24.9682 56.037 24.9736 56.0267 24.9788C56.0123 24.986 55.9977 24.9932 55.983 25C55.9782 25.0022 55.9732 25.0044 55.9684 25.0066C55.952 25.0139 55.9354 25.0209 55.9188 25.0277C55.9111 25.0309 55.9033 25.0338 55.8955 25.0368C55.8821 25.042 55.8685 25.0472 55.8549 25.052C55.8427 25.0564 55.8304 25.0605 55.8181 25.0645C55.8077 25.0679 55.7973 25.0714 55.7868 25.0746C55.7829 25.0758 55.779 25.0776 55.775 25.0788C55.7714 25.0799 55.7672 25.0802 55.7635 25.0812C55.6277 25.1202 55.4844 25.1416 55.3361 25.1416C54.4795 25.1416 53.7849 25.8381 53.7847 26.6968V31.3621C53.7847 31.6597 53.7009 31.9379 53.5563 32.1743C53.5549 32.1764 53.5538 32.179 53.5524 32.1812C53.5474 32.1894 53.5417 32.1974 53.5365 32.2055C53.5299 32.2156 53.5234 32.2258 53.5167 32.2357C53.5112 32.2438 53.5053 32.252 53.4997 32.26C53.4558 32.3221 53.4075 32.3812 53.3552 32.4361C53.2969 32.4973 53.2336 32.5537 53.166 32.6048C53.1605 32.6089 53.1548 32.6129 53.1493 32.617C53.1356 32.6271 53.1217 32.6372 53.1076 32.6468C53.0975 32.6538 53.087 32.6606 53.0767 32.6673C53.0697 32.6719 53.0627 32.6767 53.0556 32.6812C53.0415 32.6901 53.0269 32.6982 53.0125 32.7066C53.0041 32.7115 52.9957 32.7167 52.9872 32.7215C52.9766 32.7274 52.9656 32.7328 52.9549 32.7385C52.9447 32.7439 52.9346 32.7493 52.9243 32.7545C52.9098 32.7617 52.895 32.7688 52.8802 32.7757C52.8755 32.7778 52.8707 32.7801 52.866 32.7822C52.8496 32.7896 52.833 32.7966 52.8163 32.8034C52.8086 32.8066 52.8005 32.8094 52.7927 32.8125C52.7793 32.8176 52.766 32.8229 52.7524 32.8277C52.7403 32.8321 52.7279 32.8362 52.7156 32.8402C52.7052 32.8437 52.6946 32.8471 52.684 32.8503C52.6801 32.8515 52.6762 32.8533 52.6722 32.8545C52.6686 32.8555 52.6647 32.8559 52.6611 32.8569C52.5252 32.8959 52.3817 32.9173 52.2333 32.9173H50.6823C50.3808 32.9173 50.0989 32.8311 49.8608 32.6819L46.0285 30.2812V31.3621C46.0285 31.6597 45.9446 31.9379 45.8 32.1743C45.7987 32.1764 45.7975 32.179 45.7962 32.1812C45.79 32.1912 45.7832 32.2009 45.7767 32.2107C45.7713 32.2191 45.7657 32.2274 45.7601 32.2357C45.7545 32.2439 45.7487 32.252 45.7431 32.26C45.7345 32.2721 45.7259 32.2843 45.717 32.2961C45.6942 32.3266 45.6701 32.3561 45.6451 32.3847C45.63 32.402 45.6148 32.4194 45.599 32.4361C45.5406 32.4974 45.477 32.5537 45.4094 32.6048C45.4039 32.609 45.3982 32.6129 45.3927 32.617C45.379 32.6271 45.3651 32.6372 45.351 32.6468C45.341 32.6537 45.3307 32.6606 45.3205 32.6673C45.3134 32.6719 45.3065 32.6767 45.2993 32.6812C45.2852 32.69 45.2706 32.6982 45.2563 32.7066C45.2478 32.7115 45.2391 32.7167 45.2306 32.7215C45.22 32.7274 45.2093 32.7329 45.1986 32.7385C45.1884 32.7439 45.178 32.7493 45.1677 32.7545C45.1532 32.7617 45.1387 32.7689 45.124 32.7757C45.1192 32.7778 45.1142 32.7801 45.1094 32.7822C45.0931 32.7896 45.0767 32.7967 45.0601 32.8034C45.0523 32.8066 45.0443 32.8094 45.0365 32.8125C45.023 32.8177 45.0094 32.8229 44.9958 32.8277C44.9837 32.8321 44.9713 32.8362 44.959 32.8402C44.9486 32.8436 44.9383 32.8471 44.9278 32.8503C44.9238 32.8515 44.92 32.8533 44.916 32.8545C44.9123 32.8555 44.9082 32.8559 44.9045 32.8569C44.7687 32.8959 44.6254 32.9173 44.4771 32.9173H42.9257C42.6242 32.9173 42.3423 32.8311 42.1042 32.6819L34.2115 27.7378L34.2146 27.7395L34.2111 27.7375C33.6315 27.3741 34.233 26.8898 34.8129 27.252L34.2101 26.8746C33.7566 26.5904 33.4809 26.092 33.4809 25.5559V25.5406C33.2509 25.7374 33.0669 25.9952 32.95 26.2868C32.7896 26.6868 32.6018 27.073 32.3899 27.4434C32.3874 27.4479 32.3852 27.4527 32.3826 27.4573C32.3794 27.4629 32.3759 27.4686 32.3726 27.4743C32.3295 27.549 32.285 27.6231 32.2399 27.6965C32.2369 27.7015 32.234 27.7068 32.2309 27.7118C32.1883 27.7808 32.1447 27.8492 32.1003 27.917C32.0912 27.931 32.0821 27.9454 32.0729 27.9593C32.0272 28.0284 31.9801 28.0965 31.9326 28.1642C31.9231 28.1778 31.9138 28.1916 31.9042 28.2052C31.8576 28.271 31.8097 28.3361 31.7615 28.4007C31.7484 28.4182 31.7351 28.4357 31.7219 28.4531C31.6216 28.5852 31.5178 28.7148 31.4108 28.8413C31.3986 28.8556 31.3865 28.8701 31.3743 28.8843C31.1992 29.0887 31.0155 29.2858 30.8236 29.4743C30.8105 29.4872 30.7972 29.5 30.784 29.5128C30.7291 29.5662 30.6733 29.6188 30.617 29.6708C30.6 29.6865 30.5831 29.7024 30.566 29.718C30.4366 29.8358 30.3039 29.95 30.1681 30.0604C30.161 30.0661 30.1536 30.0717 30.1465 30.0774C30.0828 30.1289 30.0182 30.1793 29.9531 30.2291C29.9374 30.2411 29.9217 30.2533 29.9059 30.2652C29.8402 30.3148 29.7739 30.3639 29.7069 30.4118C29.6964 30.4193 29.6859 30.4269 29.6754 30.4343C29.6127 30.4787 29.5492 30.5224 29.4854 30.5652C29.4726 30.5739 29.4598 30.5827 29.4469 30.5913C29.3784 30.6368 29.309 30.6809 29.2392 30.7246C29.2258 30.733 29.2124 30.742 29.199 30.7503C29.1272 30.7948 29.0546 30.8383 28.9816 30.8809C28.9701 30.8876 28.9585 30.8943 28.9469 30.901C28.7986 30.9866 28.6478 31.0683 28.4944 31.1458C28.4777 31.1542 28.4609 31.1628 28.4441 31.1711C28.368 31.209 28.2909 31.246 28.2135 31.2819C28.203 31.2868 28.1925 31.2916 28.1819 31.2965C28.105 31.3318 28.0274 31.3663 27.9493 31.3996C27.9377 31.4046 27.9259 31.4093 27.9142 31.4142C27.8361 31.4471 27.7573 31.4792 27.6781 31.51C27.6689 31.5136 27.6595 31.5169 27.6503 31.5204C27.5685 31.552 27.4861 31.5825 27.4031 31.6118C27.3909 31.6161 27.3786 31.6203 27.3663 31.6246C27.2843 31.6532 27.2018 31.6809 27.1188 31.7072C27.1054 31.7115 27.0918 31.7152 27.0785 31.7194C26.9986 31.7443 26.9183 31.7685 26.8375 31.7913C26.8319 31.7929 26.8261 31.7946 26.8205 31.7961C26.7346 31.8202 26.6479 31.8429 26.5611 31.8645C26.545 31.8685 26.529 31.8728 26.5128 31.8767C26.4287 31.8972 26.3441 31.9165 26.259 31.9347C26.247 31.9372 26.2349 31.9398 26.2229 31.9423C26.1478 31.958 26.0723 31.9725 25.9965 31.9864C25.9772 31.99 25.9579 31.9938 25.9385 31.9972C25.8581 32.0114 25.7773 32.0243 25.6962 32.0364C25.6712 32.0401 25.6462 32.044 25.6212 32.0475C25.5396 32.0591 25.4576 32.0697 25.3753 32.0791C25.3609 32.0808 25.3464 32.0821 25.3319 32.0836C25.2467 32.093 25.161 32.1016 25.075 32.1086C25.0684 32.1092 25.0618 32.1095 25.0552 32.11C24.9644 32.1172 24.8731 32.1232 24.7816 32.1277C24.7729 32.1282 24.764 32.1291 24.7552 32.1295C24.7521 32.1296 24.7486 32.1293 24.7455 32.1295C24.6013 32.1361 24.4562 32.1399 24.3104 32.1399C23.8904 32.1399 23.4768 32.1113 23.0715 32.0572L29.7847 36.2632L29.7854 36.2635C30.2237 36.5383 30.5155 37.0265 30.5156 37.5829V39.5142L30.7719 39.675C30.3991 39.4367 30.5121 38.5306 30.7819 38.1791C30.9496 37.961 31.2605 37.8482 31.4934 37.9941L32.1413 38.4C31.5088 37.9991 31.2403 37.1945 31.6139 36.5437C33.1513 33.8662 35.976 32.0256 39.241 31.8715C39.5313 31.8578 39.8167 31.9428 40.0632 32.0972L42.9917 33.9316C44.0991 34.6255 43.8968 36.6457 43.0365 37.7878L43.2087 37.8961C44.5119 37.2 45.9998 36.8052 47.5795 36.8052C47.6884 36.8052 47.7969 36.8074 47.9049 36.8111C47.9039 36.8093 47.9034 36.8072 47.9024 36.8055C47.6548 36.7779 47.4143 36.7017 47.2024 36.5691L44.0858 34.6173C42.8183 33.8233 43.3421 32.478 44.6097 33.2715L44.6135 33.2739L52.5031 38.2166C52.5767 38.2627 52.6497 38.3099 52.7219 38.3579C52.7426 38.3718 52.7634 38.386 52.784 38.4C52.8424 38.4395 52.9005 38.4796 52.958 38.5204C52.9705 38.5293 52.9831 38.5382 52.9955 38.5472C53.0661 38.5979 53.1361 38.6497 53.2052 38.7024C53.2198 38.7135 53.2341 38.7252 53.2486 38.7364C53.3072 38.7816 53.3655 38.8271 53.4229 38.8736C53.4335 38.8822 53.4443 38.891 53.4549 38.8996C53.597 39.0157 53.7356 39.1359 53.8705 39.26C53.8811 39.2698 53.8919 39.2797 53.9024 39.2895C53.9589 39.342 54.0147 39.3951 54.0698 39.4489C54.0809 39.4597 54.0921 39.4704 54.1031 39.4812C54.1663 39.5434 54.2286 39.6068 54.2899 39.6708C54.2995 39.6808 54.3092 39.6909 54.3188 39.701C54.3674 39.7522 54.4153 39.8042 54.4629 39.8566C54.4814 39.877 54.5004 39.8974 54.5188 39.918C54.6357 40.0491 54.7488 40.1839 54.8583 40.3215C54.8666 40.3318 54.8751 40.342 54.8833 40.3524C54.9323 40.4144 54.9804 40.4776 55.0278 40.5409C55.0359 40.5517 55.0444 40.5624 55.0524 40.5732C55.1028 40.6411 55.1521 40.7098 55.2007 40.7791C55.2165 40.8016 55.232 40.8245 55.2476 40.8472C55.2843 40.9006 55.3206 40.9544 55.3563 41.0086C55.368 41.0266 55.38 41.0444 55.3917 41.0625C55.4394 41.1362 55.4866 41.2106 55.5323 41.2857C55.5378 41.2948 55.5428 41.3041 55.5483 41.3132C55.5849 41.3738 55.6207 41.435 55.6559 41.4965C55.6739 41.5279 55.6918 41.5593 55.7094 41.5909C55.7406 41.6469 55.7713 41.7034 55.8014 41.76C55.8097 41.7757 55.8185 41.7912 55.8267 41.8069C55.8656 41.8812 55.9034 41.9564 55.9403 42.0319C55.952 42.0558 55.9635 42.0798 55.975 42.1038C56.0031 42.1625 56.0304 42.2218 56.0573 42.2812C56.0676 42.3039 56.0781 42.3268 56.0882 42.3496C56.1573 42.5053 56.222 42.6635 56.2826 42.8236C56.2936 42.8525 56.3046 42.8814 56.3153 42.9104C56.3352 42.9645 56.3544 43.019 56.3733 43.0736C56.3838 43.104 56.3946 43.1346 56.4049 43.1652C56.4278 43.2338 56.4505 43.3029 56.4719 43.3722C56.4736 43.3779 56.4747 43.3842 56.4764 43.3899C56.7428 44.2582 56.8871 45.1802 56.8872 46.1361C56.8872 46.4211 56.8736 46.7034 56.8486 46.9819C56.8482 46.987 56.8484 46.9924 56.8479 46.9975C56.8473 47.0046 56.8462 47.0117 56.8455 47.0187C56.8421 47.0553 56.8386 47.092 56.8347 47.1284C56.8302 47.1713 56.8252 47.2142 56.8201 47.2569C56.816 47.2912 56.8118 47.3255 56.8073 47.3597C56.8003 47.4131 56.7929 47.4666 56.7851 47.5197C56.7822 47.5393 56.7794 47.5589 56.7764 47.5784C56.7685 47.6293 56.7601 47.6803 56.7514 47.7309C56.7467 47.7582 56.7417 47.7856 56.7368 47.8128C56.7284 47.8594 56.7196 47.906 56.7104 47.9524C56.7054 47.9777 56.7003 48.0032 56.6951 48.0284C56.6847 48.0793 56.6734 48.13 56.6622 48.1805C56.6567 48.2048 56.6514 48.2292 56.6458 48.2534C56.5957 48.47 56.5382 48.6839 56.4733 48.8944C56.4666 48.9159 56.4599 48.9375 56.4531 48.959C56.4378 49.0074 56.4223 49.056 56.4063 49.1041C56.3985 49.1272 56.3902 49.1502 56.3823 49.1732C56.3669 49.218 56.3511 49.2628 56.3351 49.3072C56.3247 49.336 56.3141 49.3648 56.3035 49.3934C56.2883 49.4343 56.2731 49.4753 56.2573 49.5159C56.2455 49.5464 56.2333 49.5766 56.2212 49.6069C56.2071 49.6422 56.1927 49.6777 56.1781 49.7128C56.1647 49.7453 56.1506 49.7777 56.1368 49.81C56.1249 49.8379 56.1132 49.866 56.101 49.8937C56.0847 49.9309 56.0682 49.9679 56.0514 50.0048C56.0347 50.0416 56.0176 50.0784 56.0004 50.1149C55.9878 50.1415 55.9753 50.1683 55.9625 50.1947C55.9388 50.2439 55.9145 50.2929 55.8899 50.3416C55.8811 50.3592 55.8725 50.3769 55.8635 50.3944C55.8186 50.4821 55.7719 50.5688 55.7243 50.6548C55.6972 50.7038 55.6696 50.7529 55.6417 50.8013C55.6098 50.8566 55.5771 50.9117 55.5441 50.9663C55.5297 50.99 55.5149 51.0135 55.5004 51.0371C55.4783 51.0728 55.4562 51.1087 55.4337 51.1441C55.4178 51.1691 55.4012 51.1938 55.3851 51.2187C55.3587 51.2593 55.3325 51.3001 55.3056 51.3402C55.2984 51.3509 55.2912 51.3616 55.284 51.3722C55.2496 51.423 55.2146 51.4735 55.1792 51.5236C55.1713 51.5347 55.1631 51.5458 55.1552 51.5569C55.1227 51.6025 55.0899 51.648 55.0566 51.693C55.042 51.7128 55.027 51.7324 55.0122 51.752C54.9859 51.7869 54.9594 51.8217 54.9326 51.8562C54.9139 51.8803 54.895 51.9045 54.876 51.9284C54.8521 51.9587 54.8282 51.9891 54.8038 52.0191C54.7823 52.0456 54.7604 52.0722 54.7385 52.0986C54.7157 52.1261 54.6929 52.1536 54.6698 52.1809C54.6463 52.2086 54.6225 52.2361 54.5986 52.2635C54.5718 52.2943 54.5446 52.3251 54.5174 52.3555C54.4983 52.3769 54.4794 52.3985 54.4601 52.4198C54.3164 52.5778 54.1673 52.7309 54.0132 52.8788C53.9908 52.9002 53.9677 52.9211 53.9451 52.9423C53.9147 52.9709 53.8843 52.9995 53.8535 53.0277C53.8292 53.05 53.8047 53.0721 53.7802 53.0941C53.7538 53.1177 53.7274 53.1415 53.7007 53.1649C53.6729 53.1892 53.6448 53.2134 53.6167 53.2375C53.5887 53.2614 53.5602 53.2854 53.5319 53.309C53.5024 53.3337 53.4726 53.3583 53.4427 53.3826C53.422 53.3995 53.4011 53.4162 53.3802 53.4329C53.3473 53.4592 53.3141 53.4852 53.2809 53.5111C53.2503 53.5349 53.2195 53.5588 53.1885 53.5822C53.1679 53.5979 53.1471 53.6133 53.1264 53.6288C53.0833 53.6609 53.0399 53.6929 52.9962 53.7243C52.9813 53.7349 52.9663 53.7456 52.9514 53.7562C52.9042 53.7897 52.8566 53.8228 52.8087 53.8555C52.7978 53.8629 52.787 53.8707 52.776 53.8781C52.7287 53.9101 52.6809 53.9414 52.633 53.9725C52.6179 53.9823 52.603 53.9923 52.5879 54.002C52.5605 54.0196 52.5328 54.0368 52.5052 54.0541C52.4523 54.0873 52.3988 54.1196 52.3451 54.1517C52.2386 54.2155 52.1308 54.2779 52.0215 54.3375C52.0092 54.3442 51.9964 54.3506 51.984 54.3572C51.9362 54.3831 51.8883 54.409 51.8399 54.434C51.8084 54.4503 51.7765 54.466 51.7448 54.4819C51.7128 54.498 51.6808 54.5141 51.6486 54.5298C51.6204 54.5436 51.5919 54.5569 51.5635 54.5704C51.5263 54.5882 51.4889 54.606 51.4514 54.6232C51.4188 54.6382 51.3859 54.6531 51.3531 54.6677C51.3179 54.6834 51.2824 54.6986 51.2469 54.7138C51.2211 54.725 51.195 54.7363 51.1691 54.7472C51.1245 54.7659 51.0797 54.7843 51.0347 54.8024C51.0122 54.8114 50.9896 54.8206 50.967 54.8295C50.9197 54.848 50.872 54.8658 50.8243 54.8836C50.8025 54.8918 50.7806 54.9 50.7587 54.9079C50.7165 54.9233 50.6738 54.9379 50.6313 54.9527C50.6015 54.9631 50.5719 54.9739 50.542 54.984C50.5171 54.9924 50.492 55.0001 50.467 55.0083C50.3919 55.0329 50.3163 55.0564 50.2403 55.0791C50.136 55.1102 50.0311 55.1405 49.9254 55.168C49.8872 55.1779 49.8488 55.187 49.8104 55.1965C49.7736 55.2056 49.7366 55.2149 49.6997 55.2236C49.6742 55.2295 49.6485 55.2348 49.6229 55.2406C49.5743 55.2515 49.5256 55.2624 49.4767 55.2725C49.4531 55.2774 49.4293 55.2824 49.4056 55.2871C49.3577 55.2966 49.3096 55.3057 49.2615 55.3145C49.2312 55.3201 49.2008 55.3253 49.1705 55.3305C49.124 55.3385 49.0773 55.3464 49.0306 55.3538C49.0076 55.3574 48.9845 55.3604 48.9615 55.3638C48.9115 55.3713 48.8613 55.3787 48.8111 55.3854C48.7813 55.3893 48.7515 55.3935 48.7215 55.3972C48.6803 55.4022 48.6389 55.4066 48.5976 55.4111C48.564 55.4147 48.5305 55.4185 48.4969 55.4218C48.4545 55.426 48.4119 55.4294 48.3694 55.4329C48.3333 55.436 48.297 55.4393 48.2608 55.442C48.2301 55.4442 48.1992 55.4459 48.1684 55.4479C48.1244 55.4506 48.0803 55.4537 48.0361 55.4559C48.0323 55.456 48.0282 55.4564 48.0243 55.4566C48.0216 55.4567 48.0187 55.4564 48.016 55.4566C47.8714 55.4632 47.7258 55.467 47.5795 55.467C45.7717 55.467 44.0841 54.9504 42.6559 54.0562C42.6549 54.0556 42.6538 54.0547 42.6528 54.0541L34.7622 49.1114C34.4485 48.915 34.1473 48.7001 33.8601 48.4687H16.5542C16.2526 48.4687 15.9708 48.3825 15.7326 48.2333L7.83993 43.2892L7.84306 43.2909L7.83958 43.2888C7.25974 42.9254 7.86134 42.4413 8.44132 42.8038L7.4184 42.1628C7.22617 42.0423 7.10938 41.8307 7.10938 41.6034C7.10961 41.0857 7.67761 40.7704 8.11563 41.0448L11.7931 43.3482L7.83854 40.8708C7.38501 40.5866 7.05974 40.0511 7.34167 39.5954C7.54038 39.2744 7.85248 39.0309 8.22188 38.9218C8.50066 38.8396 8.79139 38.9411 9.03785 39.0954L15.1917 42.9503C15.3521 43.0508 15.4256 43.2715 15.4413 43.5243H16.1083L10.0226 39.7121C9.63038 39.4662 9.75215 38.502 9.99063 38.1045C10.1771 37.7938 10.6096 37.5534 10.9163 37.7454L13.7743 39.5354L10.941 37.7604C10.4875 37.4762 10.2119 36.978 10.2118 36.442V35.4441C10.2119 34.2236 11.5501 33.4791 12.583 34.1239L10.941 33.0951C10.4874 32.8109 10.1622 32.2754 10.4441 31.8197C10.6428 31.4987 10.9549 31.2552 11.3243 31.1461C11.6031 31.0639 11.8938 31.1654 12.1403 31.3197L14.8851 33.0388L12.9788 31.8447C12.6288 31.6253 12.7837 31.0834 13.1965 31.0833L13.2538 31.0875C13.3106 31.0955 13.3656 31.1151 13.4146 31.1458L14.0483 31.5427C13.8373 31.4102 13.9243 31.1865 14.1354 31.3187L18.6576 34.1513C19.1348 33.8328 19.7816 33.7755 20.3396 34.1239L18.6972 33.0951C18.2437 32.8109 17.9185 32.2753 18.2003 31.8197C18.3991 31.4987 18.7112 31.2552 19.0806 31.1461C19.3594 31.0638 19.6504 31.1653 19.8969 31.3197L22.6413 33.0388L20.7354 31.8447C20.5501 31.7287 20.5071 31.5224 20.5681 31.3538C20.1582 31.1731 19.7629 30.9644 19.3865 30.7288C19.3845 30.7276 19.3825 30.7265 19.3806 30.7253L11.4934 25.7843C9.61921 24.6108 8.19123 22.7872 7.52431 20.6284C7.16444 19.4628 8.4475 18.7053 9.48021 19.3496L7.83854 18.3211C7.38508 18.037 7.0996 17.5373 7.14826 17.0034C7.56855 12.4 11.3245 8.76378 15.9719 8.5444ZM39.3615 50.5218H39.3622C39.3508 50.5005 39.3393 50.479 39.3281 50.4576C39.3393 50.4789 39.3502 50.5006 39.3615 50.5218ZM39.2896 50.3836C39.2984 50.4008 39.3074 50.4179 39.3163 50.435C39.2917 50.3876 39.2676 50.3399 39.2438 50.292L39.2896 50.3836ZM38.2535 48.7524C38.4832 48.9443 38.2351 49.1707 37.9396 48.9871L38.5108 49.3451C38.7893 49.5196 39.002 49.7801 39.141 50.0784C39.0699 49.9258 39.0025 49.7709 38.9396 49.6138C38.7987 49.2624 38.5606 48.9597 38.2615 48.7541L38.2007 48.7145L38.2535 48.7524ZM42.7885 39.6423C40.2152 39.6424 38.1292 41.7287 38.1292 44.302C38.1292 46.8754 40.2152 48.9613 42.7885 48.9614C43.3033 48.9614 43.7985 48.8774 44.2615 48.7232C46.1128 48.1067 47.4482 46.3605 47.4483 44.302C47.4482 41.7286 45.362 39.6423 42.7885 39.6423ZM15.1493 47.5892L15.1594 47.5954L15.159 47.5947L15.149 47.5888L15.1493 47.5892ZM30.6719 42.9302L31.3333 43.3444C31.5312 43.4684 31.4671 43.6729 31.2844 43.5892L31.2462 43.5684L31.3375 43.6211C31.5549 43.7374 31.8034 43.8034 32.067 43.8034H32.4691C32.2062 43.8034 31.9486 43.7295 31.7257 43.5899L30.6715 42.9298L30.6719 42.9302ZM33.2125 41.2041C34.4081 41.9531 33.8789 43.8034 32.4691 43.8034H35.8295C35.5533 43.3944 35.3403 42.9389 35.2042 42.4513L33.2125 41.2041ZM22.9156 42.9302L23.5767 43.3444C23.6644 43.3993 23.7002 43.4698 23.6976 43.5243H23.8646L22.9153 42.9295L22.9156 42.9302ZM17.6743 43.3236C17.6836 43.3138 17.6934 43.304 17.7024 43.2941L17.7038 43.2923C17.6942 43.3029 17.6842 43.3133 17.6743 43.3236ZM17.9597 40.1041C17.5865 40.903 16.5627 41.2799 15.7344 40.7632L17.376 41.7916C17.8274 42.0744 18.1518 42.6062 17.8771 43.0604C18.0217 42.824 18.1056 42.5458 18.1056 42.2482V40.1954L17.9597 40.1041ZM25.716 40.1041C25.3427 40.903 24.3193 41.2799 23.491 40.7632L25.1323 41.7916C25.5837 42.0744 25.9081 42.6061 25.6333 43.0604C25.778 42.824 25.8618 42.5458 25.8618 42.2482V40.1954L25.716 40.1041ZM19.5194 16.7038C16.9461 16.7038 14.8601 18.7901 14.8601 21.3635C14.8601 21.7464 14.9063 22.1185 14.9934 22.4746L13.9549 21.8246L13.9639 21.8298L13.9535 21.8232C13.8212 21.7403 13.6934 21.6509 13.5705 21.5555C13.2505 21.5766 12.9276 21.5078 12.6337 21.325L14.2733 22.3524C14.7268 22.6365 14.9932 23.1361 15.042 23.6701C15.0431 23.6824 15.0443 23.6949 15.0455 23.7072C15.0173 23.4117 15.0028 23.1119 15.0028 22.809C15.0028 22.716 15.0046 22.6232 15.0073 22.5309C15.5254 24.5393 17.3492 26.0232 19.5194 26.0232C22.0929 26.0232 24.1792 23.9369 24.1792 21.3635C24.1792 20.737 24.0551 20.1394 23.8309 19.5937L25.5872 20.6937L23.8306 19.5934C23.1336 17.8979 21.4662 16.7038 19.5194 16.7038ZM33.7767 20.0062C33.9929 20.1416 33.9051 20.3664 33.6889 20.2309C33.9366 20.3861 34.2227 20.4763 34.5274 20.4763H34.9722C34.6816 20.4763 34.3968 20.3946 34.1504 20.2402L33.7767 20.0062Z" fill="white" fill-opacity="0.25"/>
<path fill-rule="evenodd" clip-rule="evenodd" d="M26.2071 15.5313C25.7506 15.5313 25.3574 15.22 25.2073 14.7889C23.9395 11.1465 20.4827 8.5332 16.417 8.5332C11.2765 8.5332 7.10938 12.7108 7.10938 17.864C7.10938 23.0173 11.2765 27.1949 16.417 27.1949C20.4827 27.1949 23.9395 24.5816 25.2073 20.9392C25.3574 20.5081 25.7506 20.1968 26.2071 20.1968H32.481C33.0333 20.1968 33.481 20.6445 33.481 21.1968V26.9724C33.481 27.5247 33.9287 27.9724 34.481 27.9724H37.1348C37.6871 27.9724 38.1348 27.5247 38.1348 26.9724V21.1968C38.1348 20.6445 38.5826 20.1968 39.1348 20.1968H40.2374C40.7897 20.1968 41.2374 20.6445 41.2374 21.1968V26.9724C41.2374 27.5247 41.6851 27.9724 42.2374 27.9724H44.8912C45.4435 27.9724 45.8912 27.5247 45.8912 26.9724V21.1968C45.8912 20.6445 46.3389 20.1968 46.8912 20.1968H47.9938C48.546 20.1968 48.9938 19.749 48.9938 19.1968V16.5313C48.9938 15.979 48.546 15.5313 47.9938 15.5313H26.2071ZM21.0708 17.864C21.0708 20.4407 18.9872 22.5295 16.417 22.5295C13.8468 22.5295 11.7632 20.4407 11.7632 17.864C11.7632 15.2874 13.8468 13.1986 16.417 13.1986C18.9872 13.1986 21.0708 15.2874 21.0708 17.864Z" fill="white"/>
<path fill-rule="evenodd" clip-rule="evenodd" d="M29.896 43.5238C30.3525 43.5238 30.7457 43.8351 30.8958 44.2663C32.1636 47.9087 35.6204 50.522 39.6861 50.522C44.8266 50.522 48.9938 46.3444 48.9938 41.1911C48.9938 36.0379 44.8266 31.8603 39.6861 31.8603C35.6204 31.8603 32.1636 34.4736 30.8958 38.116C30.7457 38.5471 30.3525 38.8584 29.896 38.8584H23.6221C23.0698 38.8584 22.6221 38.4107 22.6221 37.8584V32.0827C22.6221 31.5304 22.1744 31.0827 21.6221 31.0827H18.9683C18.416 31.0827 17.9683 31.5304 17.9683 32.0827V37.8584C17.9683 38.4107 17.5206 38.8584 16.9683 38.8584H15.8657C15.3135 38.8584 14.8657 38.4107 14.8657 37.8584L14.8657 32.0827C14.8657 31.5304 14.418 31.0827 13.8657 31.0827H11.2119C10.6596 31.0827 10.2119 31.5304 10.2119 32.0827L10.2119 37.8584C10.2119 38.4107 9.76421 38.8584 9.21192 38.8584H8.10938C7.55709 38.8584 7.10938 39.3061 7.10938 39.8584L7.10938 42.5238C7.10938 43.0761 7.55709 43.5238 8.10938 43.5238H29.896ZM35.0323 41.1911C35.0323 38.6145 37.1159 36.5257 39.6861 36.5257C42.2563 36.5257 44.3399 38.6145 44.3399 41.1911C44.3399 43.7678 42.2563 45.8566 39.6861 45.8566C37.1159 45.8566 35.0323 43.7678 35.0323 41.1911Z" fill="white"/>
</svg>
