<svg width="2000" height="2000" viewBox="0 0 2000 2000" fill="none" xmlns="http://www.w3.org/2000/svg">
<path d="M1275 1158.33C1275 1012.5 1187.5 962.5 1012.5 941.67C887.502 925 862.502 891.67 862.502 833.33C862.502 774.99 904.172 737.5 987.502 737.5C1062.5 737.5 1104.17 762.5 1125 825C1129.17 837.5 1141.67 845.83 1154.17 845.83H1220.83C1237.5 845.83 1250 833.33 1250 816.67V812.5C1233.33 720.83 1158.33 650 1062.5 641.67V541.67C1062.5 525 1050 512.5 1029.17 508.33H966.672C950.002 508.33 937.502 520.83 933.332 541.67V637.5C808.332 654.17 729.172 737.5 729.172 841.67C729.172 979.17 812.502 1033.33 987.502 1054.17C1104.17 1075 1141.67 1100 1141.67 1166.67C1141.67 1233.34 1083.33 1279.17 1004.17 1279.17C895.832 1279.17 858.332 1233.33 845.832 1170.83C841.672 1154.17 829.172 1145.83 816.672 1145.83H745.832C729.172 1145.83 716.672 1158.33 716.672 1175V1179.17C733.332 1283.33 800.002 1358.33 937.502 1379.17V1479.17C937.502 1495.83 950.002 1508.33 970.832 1512.5H1033.33C1050 1512.5 1062.5 1500 1066.67 1479.17V1379.17C1191.67 1358.33 1275 1270.83 1275 1158.33Z" fill="white"/>
<path d="M787.503 1595.83C462.503 1479.17 295.833 1116.67 416.673 795.83C479.173 620.83 616.673 487.5 787.503 425C804.173 416.67 812.503 404.17 812.503 383.33V325C812.503 308.33 804.173 295.83 787.503 291.67C783.333 291.67 775.003 291.67 770.833 295.83C375.003 420.83 158.333 841.67 283.333 1237.5C358.333 1470.83 537.503 1650 770.833 1725C787.503 1733.33 804.173 1725 808.333 1708.33C812.503 1704.17 812.503 1700 812.503 1691.67V1633.33C812.503 1620.83 800.003 1604.17 787.503 1595.83ZM1229.17 295.83C1212.5 287.5 1195.83 295.83 1191.67 312.5C1187.5 316.67 1187.5 320.83 1187.5 329.17V387.5C1187.5 404.17 1200 420.83 1212.5 429.17C1537.5 545.83 1704.17 908.33 1583.33 1229.17C1520.83 1404.17 1383.33 1537.5 1212.5 1600C1195.83 1608.33 1187.5 1620.83 1187.5 1641.67V1700C1187.5 1716.67 1195.83 1729.17 1212.5 1733.33C1216.67 1733.33 1225 1733.33 1229.17 1729.17C1625 1604.17 1841.67 1183.33 1716.67 787.5C1641.67 550 1458.33 370.83 1229.17 295.83Z" fill="white"/>
</svg>
